<?xml version="1.0" encoding="UTF-8"?>
<!DOCTYPE svg PUBLIC "-//W3C//DTD SVG 1.1//EN" "http://www.w3.org/Graphics/SVG/1.1/DTD/svg11.dtd">
<svg xmlns="http://www.w3.org/2000/svg" version="1.1" width="64px" height="64px" style="shape-rendering:geometricPrecision; text-rendering:geometricPrecision; image-rendering:optimizeQuality; fill-rule:evenodd; clip-rule:evenodd" xmlns:xlink="http://www.w3.org/1999/xlink">
<g><path style="opacity:0.841" fill="#000000" d="M 27.5,-0.5 C 30.1667,-0.5 32.8333,-0.5 35.5,-0.5C 44.6322,1.57907 53.9655,3.24574 63.5,4.5C 63.5,5.83333 63.5,7.16667 63.5,8.5C 59.4915,11.186 55.8249,14.3527 52.5,18C 56.2499,18.6489 59.9166,19.4822 63.5,20.5C 63.5,21.5 63.5,22.5 63.5,23.5C 60.0359,26.4625 56.7025,29.6291 53.5,33C 56.6467,34.362 59.9801,35.1954 63.5,35.5C 63.5,36.8333 63.5,38.1667 63.5,39.5C 54.5271,47.1384 45.8605,55.1384 37.5,63.5C 35.1667,63.5 32.8333,63.5 30.5,63.5C 20.4722,60.0755 10.1389,57.4089 -0.5,55.5C -0.5,54.1667 -0.5,52.8333 -0.5,51.5C 3.34306,48.4975 7.34306,45.6641 11.5,43C 7.58339,41.5211 3.58339,40.3545 -0.5,39.5C -0.5,38.5 -0.5,37.5 -0.5,36.5C 3.46271,33.8715 7.12938,30.8715 10.5,27.5C 6.95718,26.031 3.29051,25.031 -0.5,24.5C -0.5,23.1667 -0.5,21.8333 -0.5,20.5C 9.22947,13.975 18.5628,6.97498 27.5,-0.5 Z M 48.5,21.5 C 51.8394,21.8897 55.1727,22.3897 58.5,23C 50.8333,30 43.1667,37 35.5,44C 25.4263,42.3161 15.4263,39.9828 5.5,37C 9.0626,33.7665 12.8959,30.9332 17,28.5C 23.4802,30.4459 29.9802,31.9459 36.5,33C 40.3954,28.9353 44.3954,25.102 48.5,21.5 Z M 48.5,36.5 C 51.6624,36.9113 54.6624,37.7447 57.5,39C 50.1667,45.6667 42.8333,52.3333 35.5,59C 25.2562,57.9399 15.2562,55.6066 5.5,52C 9.08399,48.7146 13.084,46.2146 17.5,44.5C 23.8052,46.1637 30.1385,47.3303 36.5,48C 41.0019,44.6642 45.0019,40.8309 48.5,36.5 Z"/></g>
</svg>
