<?xml version="1.0" encoding="UTF-8"?>
<!DOCTYPE svg PUBLIC "-//W3C//DTD SVG 1.1//EN" "http://www.w3.org/Graphics/SVG/1.1/DTD/svg11.dtd">
<svg xmlns="http://www.w3.org/2000/svg" version="1.1" width="64px" height="64px" style="shape-rendering:geometricPrecision; text-rendering:geometricPrecision; image-rendering:optimizeQuality; fill-rule:evenodd; clip-rule:evenodd" xmlns:xlink="http://www.w3.org/1999/xlink">
<g><path style="opacity:0.715" fill="#000000" d="M 29.5,0.5 C 32.4245,0.45982 35.0912,1.29315 37.5,3C 43.8333,6.83333 50.1667,10.6667 56.5,14.5C 57.8333,25.8333 57.8333,37.1667 56.5,48.5C 48.2911,53.4366 39.9577,58.1032 31.5,62.5C 23.0423,58.1032 14.7089,53.4366 6.5,48.5C 5.16667,37.1667 5.16667,25.8333 6.5,14.5C 14.397,10.0589 22.0636,5.39222 29.5,0.5 Z M 28.5,4.5 C 29.7647,5.51448 30.4313,7.01448 30.5,9C 30.4555,10.7642 30.1222,12.4309 29.5,14C 25.6227,16.4379 21.6227,18.6045 17.5,20.5C 14.7154,19.9415 12.3821,18.6082 10.5,16.5C 16.5654,12.4766 22.5654,8.47663 28.5,4.5 Z M 32.5,4.5 C 39.4426,7.97421 46.1093,11.9742 52.5,16.5C 49.4411,20.3495 45.7745,21.1828 41.5,19C 38.5815,17.2912 35.7482,15.4579 33,13.5C 32.502,10.5184 32.3354,7.51838 32.5,4.5 Z M 30.5,16.5 C 34.6056,18.3876 38.6056,20.5542 42.5,23C 38.8333,25.1667 35.1667,27.3333 31.5,29.5C 27.8333,27.3333 24.1667,25.1667 20.5,23C 24.0689,21.0583 27.4022,18.8916 30.5,16.5 Z M 7.5,19.5 C 10.5248,20.7653 13.3582,22.432 16,24.5C 16.6667,29.1667 16.6667,33.8333 16,38.5C 13.586,40.2907 11.086,41.9574 8.5,43.5C 7.5023,35.5277 7.16897,27.5277 7.5,19.5 Z M 53.5,19.5 C 54.824,23.107 55.4907,27.107 55.5,31.5C 55.1667,35.5 54.8333,39.5 54.5,43.5C 51.914,41.9574 49.414,40.2907 47,38.5C 46.3333,33.8333 46.3333,29.1667 47,24.5C 49.3256,22.9343 51.4922,21.2676 53.5,19.5 Z M 18.5,25.5 C 22.1391,27.6552 25.8057,29.8218 29.5,32C 30.8333,36.6667 32.1667,36.6667 33.5,32C 37.0838,29.9586 40.5838,27.792 44,25.5C 44.6667,29.8333 44.6667,34.1667 44,38.5C 40.3333,40.8333 36.6667,43.1667 33,45.5C 32,42.8333 31,42.8333 30,45.5C 26.3333,43.1667 22.6667,40.8333 19,38.5C 18.501,34.1794 18.3343,29.8461 18.5,25.5 Z M 15.5,42.5 C 20.7266,43.8622 25.5599,46.1956 30,49.5C 30.8214,52.5541 30.6548,55.5541 29.5,58.5C 22.9979,54.75 16.6645,50.75 10.5,46.5C 12.21,45.1128 13.8767,43.7794 15.5,42.5 Z M 43.5,42.5 C 47.1019,42.4674 50.1019,43.8007 52.5,46.5C 46.3355,50.75 40.0021,54.75 33.5,58.5C 32.3452,55.5541 32.1786,52.5541 33,49.5C 36.6515,47.2673 40.1515,44.934 43.5,42.5 Z"/></g>
<g><path style="opacity:0.883" fill="#000000" d="M 49.5,25.5 C 50.9778,25.238 52.3112,25.5713 53.5,26.5C 52.8333,26.8333 52.1667,27.1667 51.5,27.5C 50.2867,27.2528 49.62,26.5862 49.5,25.5 Z"/></g>
<g><path style="opacity:0.883" fill="#000000" d="M 49.5,30.5 C 50.9778,30.238 52.3112,30.5713 53.5,31.5C 52.8333,31.8333 52.1667,32.1667 51.5,32.5C 50.2867,32.2528 49.62,31.5862 49.5,30.5 Z"/></g>
<g><path style="opacity:0.883" fill="#000000" d="M 49.5,35.5 C 50.9778,35.238 52.3112,35.5713 53.5,36.5C 52.8333,36.8333 52.1667,37.1667 51.5,37.5C 50.2867,37.2528 49.62,36.5862 49.5,35.5 Z"/></g>
<g><path style="opacity:0.728" fill="#000000" d="M 30.5,37.5 C 31.6491,37.7911 32.3158,38.6244 32.5,40C 32.1667,40.8333 31.8333,41.6667 31.5,42.5C 30.5481,40.9547 30.2148,39.288 30.5,37.5 Z"/></g>
</svg>
